<mxfile host="Electron" modified="2024-02-22T17:33:24.050Z" agent="Mozilla/5.0 (Windows NT 10.0; Win64; x64) AppleWebKit/537.36 (KHTML, like Gecko) draw.io/23.1.5 Chrome/120.0.6099.109 Electron/28.1.0 Safari/537.36" etag="SfuNvLV4Rof7XWpFun7O" version="23.1.5" type="device">
  <diagram name="Page-1" id="ipkUGnh7KcKVSD3LejcF">
    <mxGraphModel dx="950" dy="579" grid="1" gridSize="10" guides="1" tooltips="1" connect="1" arrows="1" fold="1" page="1" pageScale="1" pageWidth="850" pageHeight="1100" math="0" shadow="0">
      <root>
        <mxCell id="0" />
        <mxCell id="1" parent="0" />
        <mxCell id="wJnUGZwf-2tFcyB3jL19-20" value="" style="rounded=0;whiteSpace=wrap;html=1;fillColor=#6d8764;fontColor=#ffffff;strokeColor=#3A5431;" vertex="1" parent="1">
          <mxGeometry x="50" y="30" width="570" height="350" as="geometry" />
        </mxCell>
        <mxCell id="wJnUGZwf-2tFcyB3jL19-10" style="edgeStyle=orthogonalEdgeStyle;rounded=1;orthogonalLoop=1;jettySize=auto;html=1;entryX=0;entryY=0.5;entryDx=0;entryDy=0;exitX=0.996;exitY=0.171;exitDx=0;exitDy=0;exitPerimeter=0;curved=0;startArrow=classic;startFill=1;jumpSize=7;strokeWidth=3;" edge="1" parent="1" source="wJnUGZwf-2tFcyB3jL19-1" target="wJnUGZwf-2tFcyB3jL19-6">
          <mxGeometry relative="1" as="geometry" />
        </mxCell>
        <mxCell id="wJnUGZwf-2tFcyB3jL19-14" style="edgeStyle=orthogonalEdgeStyle;rounded=1;orthogonalLoop=1;jettySize=auto;html=1;exitX=1;exitY=0.75;exitDx=0;exitDy=0;entryX=0;entryY=0.5;entryDx=0;entryDy=0;curved=0;startArrow=classic;startFill=1;jumpSize=7;strokeWidth=3;" edge="1" parent="1" source="wJnUGZwf-2tFcyB3jL19-1" target="wJnUGZwf-2tFcyB3jL19-18">
          <mxGeometry relative="1" as="geometry">
            <mxPoint x="510" y="310" as="targetPoint" />
          </mxGeometry>
        </mxCell>
        <mxCell id="wJnUGZwf-2tFcyB3jL19-1" value="&lt;font face=&quot;Verdana&quot;&gt;Election Management&lt;br&gt;System (EMS)&lt;br&gt;&lt;/font&gt;" style="rounded=0;whiteSpace=wrap;html=1;fillColor=#e51400;fontColor=#ffffff;strokeColor=#B20000;" vertex="1" parent="1">
          <mxGeometry x="80" y="120" width="150" height="90" as="geometry" />
        </mxCell>
        <mxCell id="wJnUGZwf-2tFcyB3jL19-6" value="Ballot Scanner" style="rounded=0;whiteSpace=wrap;html=1;fontFamily=Verdana;fillColor=#0050ef;fontColor=#ffffff;strokeColor=#001DBC;" vertex="1" parent="1">
          <mxGeometry x="450" y="60" width="120" height="60" as="geometry" />
        </mxCell>
        <mxCell id="wJnUGZwf-2tFcyB3jL19-11" style="edgeStyle=orthogonalEdgeStyle;rounded=1;orthogonalLoop=1;jettySize=auto;html=1;entryX=0;entryY=0.5;entryDx=0;entryDy=0;exitX=1;exitY=0.5;exitDx=0;exitDy=0;curved=0;startArrow=classic;startFill=1;jumpSize=7;strokeWidth=3;" edge="1" parent="1" source="wJnUGZwf-2tFcyB3jL19-1" target="wJnUGZwf-2tFcyB3jL19-17">
          <mxGeometry relative="1" as="geometry">
            <mxPoint x="230" y="160" as="sourcePoint" />
            <mxPoint x="504.48" y="162.55999999999995" as="targetPoint" />
          </mxGeometry>
        </mxCell>
        <mxCell id="wJnUGZwf-2tFcyB3jL19-17" value="Ballot Scanner" style="rounded=0;whiteSpace=wrap;html=1;fontFamily=Verdana;fillColor=#0050ef;fontColor=#ffffff;strokeColor=#001DBC;" vertex="1" parent="1">
          <mxGeometry x="450" y="135" width="120" height="60" as="geometry" />
        </mxCell>
        <mxCell id="wJnUGZwf-2tFcyB3jL19-18" value="Ballot Scanner" style="rounded=0;whiteSpace=wrap;html=1;fontFamily=Verdana;fillColor=#0050ef;fontColor=#ffffff;strokeColor=#001DBC;" vertex="1" parent="1">
          <mxGeometry x="450" y="280" width="120" height="60" as="geometry" />
        </mxCell>
        <mxCell id="wJnUGZwf-2tFcyB3jL19-19" value="&lt;b&gt;&lt;font style=&quot;font-size: 40px;&quot;&gt;...&lt;/font&gt;&lt;/b&gt;" style="text;html=1;align=center;verticalAlign=middle;whiteSpace=wrap;rounded=0;" vertex="1" parent="1">
          <mxGeometry x="480" y="220" width="60" height="30" as="geometry" />
        </mxCell>
        <mxCell id="wJnUGZwf-2tFcyB3jL19-21" value="Air Gapped Security" style="text;html=1;align=center;verticalAlign=middle;whiteSpace=wrap;rounded=0;" vertex="1" parent="1">
          <mxGeometry x="90" y="320" width="60" height="30" as="geometry" />
        </mxCell>
        <mxCell id="wJnUGZwf-2tFcyB3jL19-22" value="&lt;font face=&quot;Verdana&quot; style=&quot;font-size: 15px;&quot;&gt;USB Drives&lt;/font&gt;" style="text;html=1;align=center;verticalAlign=middle;whiteSpace=wrap;rounded=0;" vertex="1" parent="1">
          <mxGeometry x="260" y="90" width="60" height="30" as="geometry" />
        </mxCell>
        <mxCell id="wJnUGZwf-2tFcyB3jL19-23" value="Step 1: Obtain Public Keys of each Ballot Scanner &amp;amp; Create Public Key Manifest" style="text;html=1;align=center;verticalAlign=middle;whiteSpace=wrap;rounded=0;fontFamily=Verdana;fontSize=17;" vertex="1" parent="1">
          <mxGeometry x="70" y="230" width="240" height="80" as="geometry" />
        </mxCell>
      </root>
    </mxGraphModel>
  </diagram>
</mxfile>
